<?xml version="1.0" encoding="UTF-8"?>
<svg xmlns="http://www.w3.org/2000/svg" width="250" height="180" viewBox="0 0 250 180">
  <desc>Polargraph SVG - Generated from image with collision prevention</desc>
  <g fill="none" stroke="black" stroke-width="0.5" stroke-linecap="round" stroke-linejoin="round">
    <polyline points="30.00,39.64 31.00,39.39 32.00,38.51 33.00,37.05 34.00,35.11 35.00,32.83 36.00,30.35 37.00,27.85 38.00,25.50 39.00,23.45 40.00,21.85 41.00,20.79 42.00,20.36 43.00,20.58 44.00,21.44 45.00,22.87 46.00,24.79 47.00,27.06 48.00,29.53 49.00,32.03 50.00,34.39 51.00,36.46 52.00,38.09 53.00,39.17 54.00,39.63 55.00,39.44 56.00,38.62 57.00,37.20 58.00,35.31 59.00,33.05 60.00,30.59 61.00,28.08 62.00,25.71 63.00,23.63 64.00,21.98 65.00,20.87 66.00,20.37 67.00,20.53 68.00,21.33 69.00,22.72 70.00,24.60 71.00,26.84 72.00,29.30 73.00,31.80 74.00,34.18 75.00,36.28 76.00,37.96 77.00,39.09 78.00,39.62 79.00,39.49 80.00,38.72"/>
    <polyline points="30.00,44.64 31.00,44.39 32.00,43.51 33.00,42.05 34.00,40.11 35.00,37.83 36.00,35.35 37.00,32.85 38.00,30.50 39.00,28.45 40.00,26.85 41.00,25.79 42.00,25.36 43.00,25.58 44.00,26.44 45.00,27.87 46.00,29.79 47.00,32.06 48.00,34.53 49.00,37.03 50.00,39.39 51.00,41.46 52.00,43.09 53.00,44.17 54.00,44.63 55.00,44.44 56.00,43.62 57.00,42.20 58.00,40.31 59.00,38.05 60.00,35.59 61.00,33.08 62.00,30.71 63.00,28.63 64.00,26.98 65.00,25.87 66.00,25.37 67.00,25.53 68.00,26.33 69.00,27.72 70.00,29.60 71.00,31.84 72.00,34.30 73.00,36.80 74.00,39.18 75.00,41.28 76.00,42.96 77.00,44.09 78.00,44.62 79.00,44.49 80.00,43.72"/>
    <polyline points="30.00,49.64 31.00,49.39 32.00,48.51 33.00,47.05 34.00,45.11 35.00,42.83 36.00,40.35 37.00,37.85 38.00,35.50 39.00,33.45 40.00,31.85 41.00,30.79 42.00,30.36 43.00,30.58 44.00,31.44 45.00,32.87 46.00,34.79 47.00,37.06 48.00,39.53 49.00,42.03 50.00,44.39 51.00,46.46 52.00,48.09 53.00,49.17 54.00,49.63 55.00,49.44 56.00,48.62 57.00,47.20 58.00,45.31 59.00,43.05 60.00,40.59 61.00,38.08 62.00,35.71 63.00,33.63 64.00,31.98 65.00,30.87 66.00,30.37 67.00,30.53 68.00,31.33 69.00,32.72 70.00,34.60 71.00,36.84 72.00,39.30 73.00,41.80 74.00,44.18 75.00,46.28 76.00,47.96 77.00,49.09 78.00,49.62 79.00,49.49 80.00,48.72"/>
    <polyline points="30.00,54.64 31.00,54.39 32.00,53.51 33.00,52.05 34.00,50.11 35.00,47.83 36.00,45.35 37.00,42.85 38.00,40.50 39.00,38.45 40.00,36.85 41.00,35.79 42.00,35.36 43.00,35.58 44.00,36.44 45.00,37.87 46.00,39.79 47.00,42.06 48.00,44.53 49.00,47.03 50.00,49.39 51.00,51.46 52.00,53.09 53.00,54.17 54.00,54.63 55.00,54.44 56.00,53.62 57.00,52.20 58.00,50.31 59.00,48.05 60.00,45.59 61.00,43.08 62.00,40.71 63.00,38.63 64.00,36.98 65.00,35.87 66.00,35.37 67.00,35.53 68.00,36.33 69.00,37.72 70.00,39.60 71.00,41.84 72.00,44.30 73.00,46.80 74.00,49.18 75.00,51.28 76.00,52.96 77.00,54.09 78.00,54.62 79.00,54.49 80.00,53.72"/>
    <polyline points="30.00,59.64 31.00,59.39 32.00,58.51 33.00,57.05 34.00,55.11 35.00,52.83 36.00,50.35 37.00,47.85 38.00,45.50 39.00,43.45 40.00,41.85 41.00,40.79 42.00,40.36 43.00,40.58 44.00,41.44 45.00,42.87 46.00,44.79 47.00,47.06 48.00,49.53 49.00,52.03 50.00,54.39 51.00,56.46 52.00,58.09 53.00,59.17 54.00,59.63 55.00,59.44 56.00,58.62 57.00,57.20 58.00,55.31 59.00,53.05 60.00,50.59 61.00,48.08 62.00,45.71 63.00,43.63 64.00,41.98 65.00,40.87 66.00,40.37 67.00,40.53 68.00,41.33 69.00,42.72 70.00,44.60 71.00,46.84 72.00,49.30 73.00,51.80 74.00,54.18 75.00,56.28 76.00,57.96 77.00,59.09 78.00,59.62 79.00,59.49 80.00,58.72"/>
    <polyline points="117.00,58.49 118.00,59.90 119.00,60.55 120.00,60.40 121.00,59.46 122.00,57.80 123.00,55.55 124.00,52.88 125.00,49.99 126.00,47.10 127.00,44.43 128.00,42.18 129.00,40.53 130.00,39.60 131.00,39.45 132.00,40.11 133.00,41.52"/>
    <polyline points="30.00,64.64 31.00,64.39 32.00,63.51 33.00,62.05 34.00,60.11 35.00,57.83 36.00,55.35 37.00,52.85 38.00,50.50 39.00,48.45 40.00,46.85 41.00,45.79 42.00,45.36 43.00,45.58 44.00,46.44 45.00,47.87 46.00,49.79 47.00,52.06 48.00,54.53 49.00,57.03 50.00,59.39 51.00,61.46 52.00,63.09 53.00,64.17 54.00,64.63 55.00,64.44 56.00,63.62 57.00,62.20 58.00,60.31 59.00,58.05 60.00,55.59 61.00,53.08 62.00,50.71 63.00,48.63 64.00,46.98 65.00,45.87 66.00,45.37 67.00,45.53 68.00,46.33 69.00,47.72 70.00,49.60 71.00,51.84 72.00,54.30 73.00,56.80 74.00,59.18 75.00,61.28 76.00,62.96 77.00,64.09 78.00,64.62 79.00,64.49 80.00,63.72"/>
    <polyline points="98.00,64.79 99.00,63.32 100.00,49.92 101.00,51.79 102.00,53.85 103.00,55.98 104.00,58.05 105.00,59.93 106.00,61.53 107.00,62.73 108.00,63.47 109.00,63.71 110.00,63.42 111.00,62.63 112.00,61.39 113.00,59.76 114.00,57.85 115.00,55.77 116.00,53.64 117.00,51.59 118.00,49.75 119.00,48.22 120.00,47.10 121.00,46.45 122.00,46.31 123.00,46.69 124.00,47.56 125.00,48.89 126.00,50.57 127.00,52.52 128.00,54.62 129.00,56.74 130.00,58.76 131.00,60.55 132.00,62.02 133.00,63.06 134.00,63.62 135.00,63.66 136.00,63.19 137.00,62.23 138.00,60.83 139.00,59.09 140.00,57.10 141.00,54.99 142.00,52.88 143.00,50.89 144.00,49.15 145.00,47.76 146.00,46.80 147.00,46.34 148.00,46.39 149.00,46.95 150.00,48.00 151.00,46.66 152.00,45.20"/>
    <polyline points="30.00,69.64 31.00,69.39 32.00,68.51 33.00,67.05 34.00,65.11 35.00,62.83 36.00,60.35 37.00,57.85 38.00,55.50 39.00,53.45 40.00,51.85 41.00,50.79 42.00,50.36 43.00,50.58 44.00,51.44 45.00,52.87 46.00,54.79 47.00,57.06 48.00,59.53 49.00,62.03 50.00,64.39 51.00,66.46 52.00,68.09 53.00,69.17 54.00,69.63 55.00,69.44 56.00,68.62 57.00,67.20 58.00,65.31 59.00,63.05 60.00,60.59 61.00,58.08 62.00,55.71 63.00,53.63 64.00,51.98 65.00,50.87 66.00,50.37 67.00,50.53 68.00,51.33 69.00,52.72 70.00,54.60 71.00,56.84 72.00,59.30 73.00,61.80 74.00,64.18 75.00,66.28 76.00,67.96 77.00,69.09 78.00,69.62 79.00,69.49 80.00,68.72"/>
    <polyline points="88.00,52.38 89.00,54.68 90.00,59.41 91.00,57.32 92.00,55.39 93.00,53.74 94.00,52.46 95.00,51.63 96.00,51.30 97.00,51.49 98.00,52.19 99.00,53.36 100.00,54.92 101.00,56.79 102.00,58.85 103.00,60.98 104.00,63.05 105.00,64.93 106.00,66.53 107.00,67.73 108.00,68.47 109.00,68.71 110.00,68.42 111.00,67.63 112.00,66.39 113.00,64.76 114.00,62.85 115.00,60.77 116.00,58.64 117.00,56.59 118.00,54.75 119.00,53.22 120.00,52.10 121.00,51.45 122.00,51.31 123.00,51.69 124.00,52.56 125.00,53.89 126.00,55.57 127.00,57.52 128.00,59.62 129.00,61.74 130.00,63.76 131.00,65.55 132.00,67.02 133.00,68.06 134.00,68.62 135.00,68.66 136.00,68.19 137.00,67.23 138.00,65.83 139.00,64.09 140.00,62.10 141.00,59.99 142.00,57.88 143.00,55.89 144.00,54.15 145.00,52.76 146.00,51.80 147.00,51.34 148.00,51.39 149.00,51.95 150.00,53.00 151.00,54.46 152.00,56.26 153.00,58.28 154.00,60.40 155.00,62.50 156.00,64.45 157.00,66.13 158.00,67.45 159.00,68.32 160.00,68.69 161.00,65.35 162.00,67.64"/>
    <polyline points="30.00,74.64 31.00,74.39 32.00,73.51 33.00,72.05 34.00,70.11 35.00,67.83 36.00,65.35 37.00,62.85 38.00,60.50 39.00,58.45 40.00,56.85 41.00,55.79 42.00,55.36 43.00,55.58 44.00,56.44 45.00,57.87 46.00,59.79 47.00,62.06 48.00,64.53 49.00,67.03 50.00,69.39 51.00,71.46 52.00,73.09 53.00,74.17 54.00,74.63 55.00,74.44 56.00,73.62 57.00,72.20 58.00,70.31 59.00,68.05 60.00,65.59 61.00,63.08 62.00,60.71 63.00,58.63 64.00,56.98 65.00,55.87 66.00,55.37 67.00,55.53 68.00,56.33 69.00,57.72 70.00,59.60 71.00,61.84 72.00,64.30 73.00,66.80 74.00,69.18 75.00,71.28 76.00,72.96 77.00,74.09 78.00,74.62 79.00,74.49 80.00,73.72"/>
    <polyline points="82.00,58.35 83.00,73.68 84.00,73.58 85.00,72.97 86.00,71.89 87.00,70.39 88.00,68.57 89.00,66.54 90.00,64.41 91.00,62.32 92.00,60.39 93.00,58.74 94.00,57.46 95.00,56.63 96.00,56.30 97.00,56.49 98.00,57.19 99.00,58.36 100.00,59.92 101.00,61.79 102.00,63.85 103.00,65.98 104.00,68.05 105.00,69.93 106.00,71.53 107.00,72.73 108.00,73.47 109.00,73.71 110.00,73.42 111.00,72.63 112.00,71.39 113.00,69.76 114.00,67.85 115.00,65.77 116.00,63.64 117.00,61.59 118.00,59.75 119.00,58.22 120.00,57.10 121.00,56.45 122.00,56.31 123.00,56.69 124.00,57.56 125.00,58.89 126.00,60.57 127.00,62.52 128.00,64.62 129.00,66.74 130.00,68.76 131.00,70.55 132.00,72.02 133.00,73.06 134.00,73.62 135.00,73.66 136.00,73.19 137.00,72.23 138.00,70.83 139.00,69.09 140.00,67.10 141.00,64.99 142.00,62.88 143.00,60.89 144.00,59.15 145.00,57.76 146.00,56.80 147.00,56.34 148.00,56.39 149.00,56.95 150.00,58.00 151.00,59.46 152.00,61.26 153.00,63.28 154.00,65.40 155.00,67.50 156.00,69.45 157.00,71.13 158.00,72.45 159.00,73.32 160.00,73.69 161.00,73.55 162.00,72.89 163.00,71.76 164.00,70.23 165.00,68.39 166.00,66.34 167.00,64.21 168.00,71.63"/>
    <polyline points="30.00,79.64 31.00,79.39 32.00,78.51 33.00,77.05 34.00,75.11 35.00,72.83 36.00,70.35 37.00,67.85 38.00,65.50 39.00,63.45 40.00,61.85 41.00,60.79 42.00,60.36 43.00,60.58 44.00,61.44 45.00,62.87 46.00,64.79 47.00,67.06 48.00,69.53 49.00,72.03 50.00,74.39 51.00,76.46 52.00,78.09 53.00,79.17 54.00,79.63 55.00,79.44 56.00,78.62 57.00,77.20 58.00,75.31 59.00,73.05 60.00,70.59 61.00,68.08 62.00,65.71 63.00,63.63 64.00,61.98 65.00,60.87 66.00,60.37 67.00,60.53 68.00,61.33 69.00,62.72 70.00,64.60 71.00,66.84 72.00,69.30 73.00,71.80 74.00,74.18 75.00,76.28 76.00,77.96 77.00,79.09 78.00,79.62 79.00,79.49 80.00,78.72 81.00,77.34 82.00,78.26 83.00,78.68 84.00,78.58 85.00,77.97 86.00,76.89 87.00,75.39 88.00,73.57 89.00,71.54 90.00,69.41 91.00,67.32 92.00,65.39 93.00,63.74 94.00,62.46 95.00,61.63 96.00,61.30 97.00,61.49 98.00,62.19 99.00,63.36 100.00,64.92 101.00,66.79 102.00,68.85 103.00,70.98 104.00,73.05 105.00,74.93 106.00,76.53 107.00,77.73 108.00,78.47 109.00,78.71 110.00,78.42 111.00,77.63 112.00,76.39 113.00,74.76 114.00,72.85 115.00,70.77 116.00,68.64 117.00,66.59 118.00,64.75 119.00,63.22 120.00,62.10 121.00,61.45 122.00,61.31 123.00,61.69 124.00,62.56 125.00,63.89 126.00,65.57 127.00,67.52 128.00,69.62 129.00,71.74 130.00,73.76 131.00,75.55 132.00,77.02 133.00,78.06 134.00,78.62 135.00,78.66 136.00,78.19 137.00,77.23 138.00,75.83 139.00,74.09 140.00,72.10 141.00,69.99 142.00,67.88 143.00,65.89 144.00,64.15 145.00,62.76 146.00,61.80 147.00,61.34 148.00,61.39 149.00,61.95 150.00,63.00 151.00,64.46 152.00,66.26 153.00,68.28 154.00,70.40 155.00,72.50 156.00,74.45 157.00,76.13 158.00,77.45 159.00,78.32 160.00,78.69 161.00,78.55 162.00,77.89 163.00,76.76 164.00,75.23 165.00,73.39 166.00,71.34 167.00,69.21 168.00,67.13 169.00,65.22 170.00,63.60 171.00,62.36 172.00,61.57 173.00,63.13"/>
    <polyline points="30.00,84.64 31.00,84.39 32.00,83.51 33.00,82.05 34.00,80.11 35.00,77.83 36.00,75.35 37.00,72.85 38.00,70.50 39.00,68.45 40.00,66.85 41.00,65.79 42.00,65.36 43.00,65.58 44.00,66.44 45.00,67.87 46.00,69.79 47.00,72.06 48.00,74.53 49.00,77.03 50.00,79.39 51.00,81.46 52.00,83.09 53.00,84.17 54.00,84.63 55.00,84.44 56.00,83.62 57.00,82.20 58.00,80.31 59.00,78.05 60.00,75.59 61.00,73.08 62.00,70.71 63.00,68.63 64.00,66.98 65.00,65.87 66.00,65.37 67.00,65.53 68.00,66.33 69.00,67.72 70.00,69.60 71.00,71.84 72.00,74.30 73.00,76.80 74.00,79.18 75.00,81.28 76.00,82.96 77.00,84.09 78.00,84.62 79.00,84.49 80.00,83.72 81.00,82.34 82.00,83.26 83.00,83.68 84.00,83.58 85.00,82.97 86.00,81.89 87.00,80.39 88.00,78.57 89.00,76.54 90.00,74.41 91.00,72.32 92.00,70.39 93.00,68.74 94.00,67.46 95.00,66.63 96.00,66.30 97.00,66.49 98.00,67.19 99.00,68.36 100.00,69.92 101.00,71.79 102.00,73.85 103.00,75.98 104.00,78.05 105.00,79.93 106.00,81.53 107.00,82.73 108.00,83.47 109.00,83.71 110.00,83.42 111.00,82.63 112.00,81.39 113.00,79.76 114.00,77.85 115.00,75.77 116.00,73.64 117.00,71.59 118.00,69.75 119.00,68.22 120.00,67.10 121.00,66.45 122.00,66.31 123.00,66.69 124.00,67.56 125.00,68.89 126.00,70.57 127.00,72.52 128.00,74.62 129.00,76.74 130.00,78.76 131.00,80.55 132.00,82.02 133.00,83.06 134.00,83.62 135.00,83.66 136.00,83.19 137.00,82.23 138.00,80.83 139.00,79.09 140.00,77.10 141.00,74.99 142.00,72.88 143.00,70.89 144.00,69.15 145.00,67.76 146.00,66.80 147.00,66.34 148.00,66.39 149.00,66.95 150.00,68.00 151.00,69.46 152.00,71.26 153.00,73.28 154.00,75.40 155.00,77.50 156.00,79.45 157.00,81.13 158.00,82.45 159.00,83.32 160.00,83.69 161.00,83.55 162.00,82.89 163.00,81.76 164.00,80.23 165.00,78.39 166.00,76.34 167.00,74.21 168.00,72.13 169.00,70.22 170.00,68.60 171.00,67.36 172.00,66.57 173.00,66.29 174.00,66.53 175.00,67.28 176.00,64.42"/>
    <polyline points="30.00,89.64 31.00,89.39 32.00,88.51 33.00,87.05 34.00,85.11 35.00,82.83 36.00,80.35 37.00,77.85 38.00,75.50 39.00,73.45 40.00,71.85 41.00,70.79 42.00,70.36 43.00,70.58 44.00,71.44 45.00,72.87 46.00,74.79 47.00,77.06 48.00,79.53 49.00,82.03 50.00,84.39 51.00,86.46 52.00,88.09 53.00,89.17 54.00,89.63 55.00,89.44 56.00,88.62 57.00,87.20 58.00,85.31 59.00,83.05 60.00,80.59 61.00,78.08 62.00,75.71 63.00,73.63 64.00,71.98 65.00,70.87 66.00,70.37 67.00,70.53 68.00,71.33 69.00,72.72 70.00,74.60 71.00,76.84 72.00,79.30 73.00,81.80 74.00,84.18 75.00,86.28 76.00,87.96 77.00,89.09 78.00,89.62 79.00,89.49 80.00,88.72 81.00,87.34 82.00,88.26 83.00,88.68 84.00,88.58 85.00,87.97 86.00,86.89 87.00,85.39 88.00,83.57 89.00,81.54 90.00,79.41 91.00,77.32 92.00,75.39 93.00,73.74 94.00,72.46 95.00,71.63 96.00,71.30 97.00,71.49 98.00,72.19 99.00,73.36 100.00,74.92 101.00,76.79 102.00,78.85 103.00,80.98 104.00,83.05 105.00,84.93 106.00,86.53 107.00,87.73 108.00,88.47 109.00,88.71 110.00,88.42 111.00,87.63 112.00,86.39 113.00,84.76 114.00,82.85 115.00,80.77 116.00,78.64 117.00,76.59 118.00,74.75 119.00,73.22 120.00,72.10 121.00,71.45 122.00,71.31 123.00,71.69 124.00,72.56 125.00,73.89 126.00,75.57 127.00,77.52 128.00,79.62 129.00,81.74 130.00,83.76 131.00,85.55 132.00,87.02 133.00,88.06 134.00,88.62 135.00,88.66 136.00,88.19 137.00,87.23 138.00,85.83 139.00,84.09 140.00,82.10 141.00,79.99 142.00,77.88 143.00,75.89 144.00,74.15 145.00,72.76 146.00,71.80 147.00,71.34 148.00,71.39 149.00,71.95 150.00,73.00 151.00,74.46 152.00,76.26 153.00,78.28 154.00,80.40 155.00,82.50 156.00,84.45 157.00,86.13 158.00,87.45 159.00,88.32 160.00,88.69 161.00,88.55 162.00,87.89 163.00,86.76 164.00,85.23 165.00,83.39 166.00,81.34 167.00,79.21 168.00,77.13 169.00,75.22 170.00,73.60 171.00,72.36 172.00,71.57 173.00,71.29 174.00,71.53 175.00,72.28 176.00,73.49 177.00,75.08 178.00,70.80"/>
    <polyline points="70.00,90.11 71.00,77.64 72.00,80.10 73.00,82.60 74.00,84.98 75.00,87.08 76.00,88.76 77.00,89.89 78.00,90.42 79.00,90.29 80.00,90.99 81.00,92.34 82.00,93.26 83.00,93.68 84.00,93.58 85.00,92.97 86.00,91.89 87.00,90.39 88.00,88.57 89.00,86.54 90.00,84.41 91.00,82.32 92.00,80.39 93.00,78.74 94.00,77.46 95.00,76.63 96.00,76.30 97.00,76.49 98.00,77.19 99.00,78.36 100.00,79.92 101.00,81.79 102.00,83.85 103.00,85.98 104.00,88.05 105.00,89.93 106.00,91.53 107.00,92.73 108.00,93.47 109.00,93.71 110.00,93.42 111.00,92.63 112.00,91.39 113.00,89.76 114.00,87.85 115.00,85.77 116.00,83.64 117.00,81.59 118.00,79.75 119.00,78.22 120.00,77.10 121.00,76.45 122.00,76.31 123.00,76.69 124.00,77.56 125.00,78.89 126.00,80.57 127.00,82.52 128.00,84.62 129.00,86.74 130.00,88.76 131.00,90.55 132.00,92.02 133.00,93.06 134.00,93.62 135.00,93.66 136.00,93.19 137.00,92.23 138.00,90.83 139.00,89.09 140.00,87.10 141.00,84.99 142.00,82.88 143.00,80.89 144.00,79.15 145.00,77.76 146.00,76.80 147.00,76.34 148.00,76.39 149.00,76.95 150.00,78.00 151.00,79.46 152.00,81.26 153.00,83.28 154.00,85.40 155.00,87.50 156.00,89.45 157.00,91.13 158.00,92.45 159.00,93.32 160.00,93.69 161.00,93.55 162.00,92.89 163.00,91.76 164.00,90.23 165.00,88.39 166.00,86.34 167.00,84.21 168.00,82.13 169.00,80.22 170.00,78.60 171.00,77.36 172.00,76.57 173.00,76.29 174.00,76.53 175.00,77.28 176.00,78.49 177.00,80.08 178.00,81.98 179.00,84.05 180.00,79.92"/>
    <polyline points="70.00,95.11 71.00,81.36 72.00,81.88 73.00,83.40 74.00,85.78 75.00,87.88 76.00,89.56 77.00,90.69 78.00,92.31 79.00,94.27 80.00,95.99 81.00,97.34 82.00,98.26 83.00,98.68 84.00,98.58 85.00,97.97 86.00,96.89 87.00,95.39 88.00,93.57 89.00,91.54 90.00,89.41 91.00,87.32 92.00,85.39 93.00,83.74 94.00,82.46 95.00,81.63 96.00,81.30 97.00,81.49 98.00,82.19 99.00,83.36 100.00,84.92 101.00,86.79 102.00,88.85 103.00,90.98 104.00,93.05 105.00,94.93 106.00,96.53 107.00,97.73 108.00,98.47 109.00,98.71 110.00,98.42 111.00,97.63 112.00,96.39 113.00,94.76 114.00,92.85 115.00,90.77 116.00,88.64 117.00,86.59 118.00,84.75 119.00,83.22 120.00,82.10 121.00,81.45 122.00,81.31 123.00,81.69 124.00,82.56 125.00,83.89 126.00,85.57 127.00,87.52 128.00,89.62 129.00,91.74 130.00,93.76 131.00,95.55 132.00,97.02 133.00,98.06 134.00,98.62 135.00,98.66 136.00,98.19 137.00,97.23 138.00,95.83 139.00,94.09 140.00,92.10 141.00,89.99 142.00,87.88 143.00,85.89 144.00,84.15 145.00,82.76 146.00,81.80 147.00,81.34 148.00,81.39 149.00,81.95 150.00,83.00 151.00,84.46 152.00,86.26 153.00,88.28 154.00,90.40 155.00,92.50 156.00,94.45 157.00,96.13 158.00,97.45 159.00,98.32 160.00,98.69 161.00,98.55 162.00,97.89 163.00,96.76 164.00,95.23 165.00,93.39 166.00,91.34 167.00,89.21 168.00,87.13 169.00,85.22 170.00,83.60 171.00,82.36 172.00,81.57 173.00,81.29 174.00,81.53 175.00,82.28 176.00,83.49 177.00,85.08 178.00,86.98 179.00,89.05 180.00,84.92"/>
    <polyline points="70.00,100.11 71.00,86.36 72.00,86.88 73.00,87.88 74.00,89.31 75.00,91.08 76.00,93.08 77.00,95.20 78.00,97.31 79.00,99.27 80.00,100.99 81.00,102.34 82.00,103.26 83.00,103.68 84.00,103.58 85.00,102.97 86.00,101.89 87.00,100.39 88.00,98.57 89.00,96.54 90.00,94.41 91.00,92.32 92.00,90.39 93.00,88.74 94.00,87.46 95.00,86.63 96.00,86.30 97.00,86.49 98.00,87.19 99.00,88.36 100.00,89.92 101.00,91.79 102.00,93.85 103.00,95.98 104.00,98.05 105.00,99.93 106.00,101.53 107.00,102.73 108.00,103.47 109.00,103.71 110.00,103.42 111.00,102.63 112.00,101.39 113.00,99.76 114.00,97.85 115.00,95.77 116.00,93.64 117.00,91.59 118.00,89.75 119.00,88.22 120.00,87.10 121.00,86.45 122.00,86.31 123.00,86.69 124.00,87.56 125.00,88.89 126.00,90.57 127.00,92.52 128.00,94.62 129.00,96.74 130.00,98.76 131.00,100.55 132.00,102.02 133.00,103.06 134.00,103.62 135.00,103.66 136.00,103.19 137.00,102.23 138.00,100.83 139.00,99.09 140.00,97.10 141.00,94.99 142.00,92.88 143.00,90.89 144.00,89.15 145.00,87.76 146.00,86.80 147.00,86.34 148.00,86.39 149.00,86.95 150.00,88.00 151.00,89.46 152.00,91.26 153.00,93.28 154.00,95.40 155.00,97.50 156.00,99.45 157.00,101.13 158.00,102.45 159.00,103.32 160.00,103.69 161.00,103.55 162.00,102.89 163.00,101.76 164.00,100.23 165.00,98.39 166.00,96.34 167.00,94.21 168.00,92.13 169.00,90.22 170.00,88.60 171.00,87.36 172.00,86.57 173.00,86.29 174.00,86.53 175.00,87.28 176.00,88.49 177.00,90.08 178.00,91.98 179.00,94.05 180.00,89.92"/>
    <polyline points="214.00,88.93 215.00,87.40 216.00,86.36"/>
    <polyline points="72.00,109.22 73.00,92.88 74.00,94.31 75.00,96.08 76.00,98.08 77.00,100.20 78.00,102.31 79.00,104.27 80.00,105.99 81.00,107.34 82.00,108.26 83.00,108.68 84.00,108.58 85.00,107.97 86.00,106.89 87.00,105.39 88.00,103.57 89.00,101.54 90.00,99.41 91.00,97.32 92.00,95.39 93.00,93.74 94.00,92.46 95.00,91.63 96.00,91.30 97.00,91.49 98.00,92.19 99.00,93.36 100.00,94.92 101.00,96.79 102.00,98.85 103.00,100.98 104.00,103.05 105.00,104.93 106.00,106.53 107.00,107.73 108.00,108.47 109.00,108.71 110.00,108.42 111.00,107.63 112.00,106.39 113.00,104.76 114.00,102.85 115.00,100.77 116.00,98.64 117.00,96.59 118.00,94.75 119.00,93.22 120.00,92.10 121.00,91.45 122.00,91.31 123.00,91.69 124.00,92.56 125.00,93.89 126.00,95.57 127.00,97.52 128.00,99.62 129.00,101.74 130.00,103.76 131.00,105.55 132.00,107.02 133.00,108.06 134.00,108.62 135.00,108.66 136.00,108.19 137.00,107.23 138.00,105.83 139.00,104.09 140.00,102.10 141.00,99.99 142.00,97.88 143.00,95.89 144.00,94.15 145.00,92.76 146.00,91.80 147.00,91.34 148.00,91.39 149.00,91.95 150.00,93.00 151.00,94.46 152.00,96.26 153.00,98.28 154.00,100.40 155.00,102.50 156.00,104.45 157.00,106.13 158.00,107.45 159.00,108.32 160.00,108.69 161.00,108.55 162.00,107.89 163.00,106.76 164.00,105.23 165.00,103.39 166.00,101.34 167.00,99.21 168.00,97.13 169.00,95.22 170.00,93.60 171.00,92.36 172.00,91.57 173.00,91.29 174.00,91.53 175.00,92.28 176.00,93.49 177.00,95.08 178.00,90.80"/>
    <polyline points="213.00,95.85 214.00,93.93 215.00,92.40 216.00,91.36 217.00,90.86"/>
    <polyline points="74.00,115.58 75.00,101.08 76.00,103.08 77.00,105.20 78.00,107.31 79.00,109.27 80.00,110.99 81.00,112.34 82.00,113.26 83.00,113.68 84.00,113.58 85.00,112.97 86.00,111.89 87.00,110.39 88.00,108.57 89.00,106.54 90.00,104.41 91.00,102.32 92.00,100.39 93.00,98.74 94.00,97.46 95.00,96.63 96.00,96.30 97.00,96.49 98.00,97.19 99.00,98.36 100.00,99.92 101.00,101.79 102.00,103.85 103.00,105.98 104.00,108.05 105.00,109.93 106.00,111.53 107.00,112.73 108.00,113.47 109.00,113.71 110.00,113.42 111.00,112.63 112.00,111.39 113.00,109.76 114.00,107.85 115.00,105.77 116.00,103.64 117.00,101.59 118.00,99.75 119.00,98.22 120.00,97.10 121.00,96.45 122.00,96.31 123.00,96.69 124.00,97.56 125.00,98.89 126.00,100.57 127.00,102.52 128.00,104.62 129.00,106.74 130.00,108.76 131.00,110.55 132.00,112.02 133.00,113.06 134.00,113.62 135.00,113.66 136.00,113.19 137.00,112.23 138.00,110.83 139.00,109.09 140.00,107.10 141.00,104.99 142.00,102.88 143.00,100.89 144.00,99.15 145.00,97.76 146.00,96.80 147.00,96.34 148.00,96.39 149.00,96.95 150.00,98.00 151.00,99.46 152.00,101.26 153.00,103.28 154.00,105.40 155.00,107.50 156.00,109.45 157.00,111.13 158.00,112.45 159.00,113.32 160.00,113.69 161.00,113.55 162.00,112.89 163.00,111.76 164.00,110.23 165.00,108.39 166.00,106.34 167.00,104.21 168.00,102.13 169.00,100.22 170.00,98.60 171.00,97.36 172.00,96.57 173.00,96.29 174.00,96.53 175.00,97.28 176.00,94.42"/>
    <polyline points="211.00,105.33 212.00,103.03 213.00,100.85 214.00,98.93 215.00,97.40 216.00,96.36 217.00,95.86 218.00,95.95 219.00,96.61"/>
    <polyline points="77.00,116.84 78.00,112.31 79.00,114.27 80.00,115.99 81.00,117.34 82.00,118.26 83.00,118.68 84.00,118.58 85.00,117.97 86.00,116.89 87.00,115.39 88.00,113.57 89.00,111.54 90.00,109.41 91.00,107.32 92.00,105.39 93.00,103.74 94.00,102.46 95.00,101.63 96.00,101.30 97.00,101.49 98.00,102.19 99.00,103.36 100.00,104.92 101.00,106.79 102.00,108.85 103.00,110.98 104.00,113.05 105.00,114.93 106.00,116.53 107.00,117.73 108.00,118.47 109.00,118.71 110.00,118.42 111.00,117.63 112.00,116.39 113.00,114.76 114.00,112.85 115.00,110.77 116.00,108.64 117.00,106.59 118.00,104.75 119.00,103.22 120.00,102.10 121.00,101.45 122.00,101.31 123.00,101.69 124.00,102.56 125.00,103.89 126.00,105.57 127.00,107.52 128.00,109.62 129.00,111.74 130.00,113.76 131.00,115.55 132.00,117.02 133.00,118.06 134.00,118.62 135.00,118.66 136.00,118.19 137.00,117.23 138.00,115.83 139.00,114.09 140.00,112.10 141.00,109.99 142.00,107.88 143.00,105.89 144.00,104.15 145.00,102.76 146.00,101.80 147.00,101.34 148.00,101.39 149.00,101.95 150.00,103.00 151.00,104.46 152.00,106.26 153.00,108.28 154.00,110.40 155.00,112.50 156.00,114.45 157.00,116.13 158.00,117.45 159.00,118.32 160.00,118.69 161.00,118.55 162.00,117.89 163.00,116.76 164.00,115.23 165.00,113.39 166.00,111.34 167.00,109.21 168.00,107.13 169.00,105.22 170.00,103.60 171.00,102.36 172.00,101.57 173.00,103.13"/>
    <polyline points="210.00,112.62 211.00,110.33 212.00,108.03 213.00,105.85 214.00,103.93 215.00,102.40 216.00,101.36 217.00,100.86 218.00,100.95 219.00,101.61 220.00,102.80"/>
    <polyline points="82.00,108.35 83.00,123.68 84.00,123.58 85.00,122.97 86.00,121.89 87.00,120.39 88.00,118.57 89.00,116.54 90.00,114.41 91.00,112.32 92.00,110.39 93.00,108.74 94.00,107.46 95.00,106.63 96.00,106.30 97.00,106.49 98.00,107.19 99.00,108.36 100.00,109.92 101.00,111.79 102.00,113.85 103.00,115.98 104.00,118.05 105.00,119.93 106.00,121.53 107.00,122.73 108.00,123.47 109.00,123.71 110.00,123.42 111.00,122.63 112.00,121.39 113.00,119.76 114.00,117.85 115.00,115.77 116.00,113.64 117.00,111.59 118.00,109.75 119.00,108.22 120.00,107.10 121.00,106.45 122.00,106.31 123.00,106.69 124.00,107.56 125.00,108.89 126.00,110.57 127.00,112.52 128.00,114.62 129.00,116.74 130.00,118.76 131.00,120.55 132.00,122.02 133.00,123.06 134.00,123.62 135.00,123.66 136.00,123.19 137.00,122.23 138.00,120.83 139.00,119.09 140.00,117.10 141.00,114.99 142.00,112.88 143.00,110.89 144.00,109.15 145.00,107.76 146.00,106.80 147.00,106.34 148.00,106.39 149.00,106.95 150.00,108.00 151.00,109.46 152.00,111.26 153.00,113.28 154.00,115.40 155.00,117.50 156.00,119.45 157.00,121.13 158.00,122.45 159.00,123.32 160.00,123.69 161.00,123.55 162.00,122.89 163.00,121.76 164.00,120.23 165.00,118.39 166.00,116.34 167.00,114.21 168.00,121.63"/>
    <polyline points="209.00,119.74 210.00,117.62 211.00,115.33 212.00,113.03 213.00,110.85 214.00,108.93 215.00,107.40 216.00,106.36 217.00,105.86 218.00,105.95 219.00,106.61 220.00,107.80 221.00,109.46"/>
    <polyline points="88.00,112.38 89.00,114.68 90.00,119.41 91.00,117.32 92.00,115.39 93.00,113.74 94.00,112.46 95.00,111.63 96.00,111.30 97.00,111.49 98.00,112.19 99.00,113.36 100.00,114.92 101.00,116.79 102.00,118.85 103.00,120.98 104.00,123.05 105.00,124.93 106.00,126.53 107.00,127.73 108.00,128.47 109.00,128.71 110.00,128.42 111.00,127.63 112.00,126.39 113.00,124.76 114.00,122.85 115.00,120.77 116.00,118.64 117.00,116.59 118.00,114.75 119.00,113.22 120.00,112.10 121.00,111.45 122.00,111.31 123.00,111.69 124.00,112.56 125.00,113.89 126.00,115.57 127.00,117.52 128.00,119.62 129.00,121.74 130.00,123.76 131.00,125.55 132.00,127.02 133.00,128.06 134.00,128.62 135.00,128.66 136.00,128.19 137.00,127.23 138.00,125.83 139.00,124.09 140.00,122.10 141.00,119.99 142.00,117.88 143.00,115.89 144.00,114.15 145.00,112.76 146.00,111.80 147.00,111.34 148.00,111.39 149.00,111.95 150.00,113.00 151.00,114.46 152.00,116.26 153.00,118.28 154.00,120.40 155.00,122.50 156.00,124.45 157.00,126.13 158.00,127.45 159.00,128.32 160.00,128.69 161.00,125.35 162.00,127.64"/>
    <polyline points="208.00,126.55 209.00,124.74 210.00,122.62 211.00,120.33 212.00,118.03 213.00,115.85 214.00,113.93 215.00,112.40 216.00,111.36 217.00,110.86 218.00,110.95 219.00,111.61 220.00,112.80 221.00,114.46 222.00,116.46"/>
    <polyline points="98.00,134.79 99.00,133.32 100.00,119.92 101.00,121.79 102.00,123.85 103.00,125.98 104.00,128.05 105.00,129.93 106.00,131.53 107.00,132.73 108.00,133.47 109.00,133.71 110.00,133.42 111.00,132.63 112.00,131.39 113.00,129.76 114.00,127.85 115.00,125.77 116.00,123.64 117.00,121.59 118.00,119.75 119.00,118.22 120.00,117.10 121.00,116.45 122.00,116.31 123.00,116.69 124.00,117.56 125.00,118.89 126.00,120.57 127.00,122.52 128.00,124.62 129.00,126.74 130.00,128.76 131.00,130.55 132.00,132.02 133.00,133.06 134.00,133.62 135.00,133.66 136.00,133.19 137.00,132.23 138.00,130.83 139.00,129.09 140.00,127.10 141.00,124.99 142.00,122.88 143.00,120.89 144.00,119.15 145.00,117.76 146.00,116.80 147.00,116.34 148.00,116.39 149.00,116.95 150.00,118.00 151.00,116.66 152.00,115.20"/>
    <polyline points="206.00,133.84 207.00,132.95 208.00,131.55 209.00,129.74 210.00,127.62 211.00,125.33 212.00,123.03 213.00,120.85 214.00,118.93 215.00,117.40 216.00,116.36 217.00,115.86 218.00,115.95 219.00,116.61 220.00,117.80 221.00,119.46 222.00,121.46 223.00,123.69 224.00,126.01"/>
    <polyline points="117.00,138.49 118.00,139.90 119.00,140.55 120.00,140.40 121.00,139.46 122.00,137.80 123.00,135.55 124.00,132.88 125.00,129.99 126.00,127.10 127.00,124.43 128.00,122.18 129.00,120.53 130.00,119.60 131.00,119.45 132.00,120.11 133.00,121.52"/>
    <polyline points="205.00,139.18 206.00,138.84 207.00,137.95 208.00,136.55 209.00,134.74 210.00,132.62 211.00,130.33 212.00,128.03 213.00,125.85 214.00,123.93 215.00,122.40 216.00,121.36 217.00,120.86 218.00,120.95 219.00,121.61 220.00,122.80 221.00,124.46 222.00,126.46 223.00,128.69 224.00,131.01 225.00,133.26"/>
    <polyline points="204.00,143.92 205.00,144.18 206.00,143.84 207.00,142.95 208.00,141.55 209.00,139.74 210.00,137.62 211.00,135.33 212.00,133.03 213.00,130.85 214.00,128.93 215.00,127.40 216.00,126.36 217.00,125.86 218.00,125.95 219.00,126.61 220.00,127.80 221.00,129.46 222.00,131.46 223.00,133.69 224.00,136.01 225.00,138.26 226.00,140.30"/>
    <polyline points="203.00,148.10 204.00,148.92 205.00,149.18 206.00,148.84 207.00,147.95 208.00,146.55 209.00,144.74 210.00,142.62 211.00,140.33 212.00,138.03 213.00,135.85 214.00,133.93 215.00,132.40 216.00,131.36 217.00,130.86 218.00,130.95 219.00,131.61 220.00,132.80 221.00,134.46 222.00,136.46 223.00,138.69 224.00,141.01 225.00,143.26 226.00,145.30 227.00,147.01"/>
    <polyline points="201.00,150.00 202.00,151.76 203.00,153.10 204.00,153.92 205.00,154.18 206.00,153.84 207.00,152.95 208.00,151.55 209.00,149.74 210.00,147.62 211.00,145.33 212.00,143.03 213.00,140.85 214.00,138.93 215.00,137.40 216.00,136.36 217.00,135.86 218.00,135.95 219.00,136.61 220.00,137.80 221.00,139.46 222.00,141.46 223.00,143.69 224.00,146.01 225.00,148.26 226.00,150.30 227.00,152.01 228.00,153.27 229.00,154.00"/>
    <polyline points="200.00,152.91 201.00,155.00 202.00,156.76 203.00,158.10 204.00,158.92 205.00,159.18 206.00,158.84 207.00,157.95 208.00,156.55 209.00,154.74 210.00,152.62 211.00,150.33 212.00,148.03 213.00,145.85 214.00,143.93 215.00,142.40 216.00,141.36 217.00,140.86 218.00,140.95 219.00,141.61 220.00,142.80 221.00,144.46 222.00,146.46 223.00,148.69 224.00,151.01 225.00,153.26 226.00,155.30 227.00,157.01 228.00,158.27 229.00,159.00 230.00,159.16"/>
  </g>
</svg>