<?xml version="1.0" encoding="UTF-8"?>
<svg xmlns="http://www.w3.org/2000/svg" width="250" height="180" viewBox="0 0 250 180">
  <desc>Polargraph SVG - Generated from imagewith organic style</desc>
  <g fill="none" stroke="black" stroke-width="0.5" stroke-linecap="round" stroke-linejoin="round">
    <polyline points="30.00,22.57 31.00,24.35 32.00,26.46 33.00,27.39 34.00,29.33 35.00,32.03 36.00,35.24 37.00,38.89 38.00,40.57 39.00,41.12 40.00,40.18 41.00,38.66 42.00,36.60 43.00,34.85 44.00,33.41 45.00,31.46 46.00,29.18 47.00,26.99 48.00,22.95 49.00,20.58 50.00,18.94 51.00,18.46 52.00,19.75 53.00,22.01 54.00,24.46 55.00,25.83 56.00,27.36 57.00,29.32 58.00,31.21 59.00,34.65 60.00,37.69 61.00,40.14 62.00,41.05 63.00,40.48 64.00,38.96 65.00,36.93 66.00,34.96 67.00,33.27 68.00,32.18 69.00,30.03 70.00,27.03 71.00,24.21 72.00,20.67 73.00,19.36 74.00,18.46 75.00,19.42 76.00,21.70 77.00,24.03 78.00,25.87 79.00,27.14 80.00,28.49"/>
    <polyline points="30.00,29.91 31.00,29.26 32.00,28.56 33.00,28.19 34.00,30.13 35.00,32.83 36.00,36.04 37.00,39.69 38.00,41.37 39.00,41.92 40.00,40.98 41.00,39.78 42.00,40.25 43.00,40.91 44.00,41.97 45.00,43.22 46.00,43.93 47.00,44.38 48.00,42.63 49.00,40.00 50.00,36.44 51.00,33.48 52.00,31.25 53.00,30.27 54.00,29.24 55.00,28.43 56.00,28.16 57.00,30.12 58.00,32.01 59.00,35.45 60.00,38.49 61.00,40.94 62.00,41.85 63.00,41.28 64.00,39.76 65.00,40.37 66.00,41.00 67.00,42.12 68.00,43.13 69.00,44.55 70.00,44.11 71.00,42.66 72.00,39.48 73.00,36.24 74.00,33.45 75.00,31.34 76.00,29.73 77.00,29.49 78.00,28.43 79.00,27.94 80.00,29.29"/>
    <polyline points="30.00,31.92 31.00,33.07 32.00,33.76 33.00,33.87 34.00,34.19 35.00,35.49 36.00,37.62 37.00,40.49 38.00,43.80 39.00,46.90 40.00,48.02 41.00,47.93 42.00,47.55 43.00,46.95 44.00,46.38 45.00,45.84 46.00,45.17 47.00,45.18 48.00,43.43 49.00,40.80 50.00,37.24 51.00,34.28 52.00,32.05 53.00,32.04 54.00,33.13 55.00,33.60 56.00,33.72 57.00,33.87 58.00,35.10 59.00,37.67 60.00,39.96 61.00,43.79 62.00,46.78 63.00,47.57 64.00,48.33 65.00,47.70 66.00,47.09 67.00,46.36 68.00,46.07 69.00,45.35 70.00,44.91 71.00,43.46 72.00,40.28 73.00,37.04 74.00,34.25 75.00,32.14 76.00,31.90 77.00,32.76 78.00,33.40 79.00,33.77 80.00,34.20"/>
    <polyline points="30.00,38.95 31.00,37.72 32.00,36.47 33.00,36.78 34.00,37.56 35.00,38.12 36.00,38.44 37.00,41.29 38.00,44.60 39.00,47.70 40.00,48.82 41.00,48.73 42.00,49.52 43.00,51.78 44.00,52.79 45.00,52.86 46.00,53.06 47.00,52.38 48.00,51.31 49.00,51.19 50.00,50.80 51.00,50.34 52.00,48.32 53.00,46.10 54.00,43.12 55.00,40.79 56.00,38.34 57.00,37.02 58.00,36.66 59.00,38.47 60.00,40.76 61.00,44.59 62.00,47.58 63.00,48.37 64.00,49.13 65.00,48.50 66.00,47.89 67.00,47.48 68.00,50.37 69.00,52.36 70.00,53.12 71.00,53.02 72.00,52.59 73.00,52.06 74.00,51.18 75.00,51.08 76.00,50.55 77.00,49.55 78.00,47.49 79.00,45.32 80.00,42.63"/>
    <polyline points="30.00,52.62 31.00,54.17 32.00,55.63 33.00,57.25 34.00,59.17 35.00,61.27 36.00,61.14 37.00,59.51 38.00,56.25 39.00,52.86 40.00,49.73 41.00,49.53 42.00,50.32 43.00,52.58 44.00,53.59 45.00,53.66 46.00,53.86 47.00,53.18 48.00,52.11 49.00,51.99 50.00,51.60 51.00,51.14 52.00,51.07 53.00,53.20 54.00,54.31 55.00,56.06 56.00,57.83 57.00,59.98 58.00,60.95 59.00,60.76 60.00,58.84 61.00,56.01 62.00,52.23 63.00,49.17 64.00,49.93 65.00,49.30 66.00,48.69 67.00,48.28 68.00,51.17 69.00,53.16 70.00,53.92 71.00,53.82 72.00,53.39 73.00,52.86 74.00,51.98 75.00,51.88 76.00,53.71 77.00,54.83 78.00,56.45 79.00,58.78 80.00,60.30"/>
    <polyline points="117.00,58.30 118.00,60.55 119.00,62.17 120.00,61.50 121.00,59.28 122.00,55.36 123.00,51.90 124.00,48.82 125.00,46.53 126.00,45.16 127.00,43.46 128.00,40.72 129.00,38.94 130.00,38.06 131.00,38.40 132.00,42.16 133.00,45.39"/>
    <polyline points="30.00,65.39 31.00,64.75 32.00,63.67 33.00,60.78 34.00,59.97 35.00,62.07 36.00,61.94 37.00,60.31 38.00,57.05 39.00,53.66 40.00,50.53 41.00,50.33 42.00,51.12 43.00,53.38 44.00,54.39 45.00,54.46 46.00,54.66 47.00,53.98 48.00,52.91 49.00,53.58 50.00,56.10 51.00,57.84 52.00,58.80 53.00,59.65 54.00,60.82 55.00,61.69 56.00,63.07 57.00,63.82 58.00,65.29 59.00,65.65 60.00,64.54 61.00,62.62 62.00,60.35 63.00,57.72 64.00,55.06 65.00,52.83 66.00,51.82 67.00,50.82 68.00,51.97 69.00,53.96 70.00,54.72 71.00,54.62 72.00,54.19 73.00,53.66 74.00,52.78 75.00,52.68 76.00,54.51 77.00,55.63 78.00,57.25 79.00,59.58 80.00,61.10"/>
    <polyline points="98.00,46.79 99.00,49.09 100.00,52.50 101.00,51.74 102.00,51.00 103.00,50.24 104.00,49.45 105.00,48.48 106.00,47.29 107.00,46.53 108.00,46.13 109.00,45.84 110.00,46.94 111.00,48.46 112.00,51.01 113.00,52.93 114.00,55.62 115.00,57.27 116.00,58.06 117.00,59.10 118.00,61.35 119.00,62.97 120.00,62.30 121.00,62.29 122.00,63.52 123.00,63.85 124.00,64.14 125.00,63.60 126.00,61.62 127.00,59.17 128.00,57.33 129.00,55.24 130.00,53.15 131.00,52.13 132.00,51.37 133.00,50.45 134.00,49.64 135.00,48.87 136.00,47.67 137.00,46.67 138.00,45.97 139.00,45.73 140.00,46.86 141.00,47.46 142.00,50.04 143.00,52.03 144.00,54.41 145.00,56.31 146.00,57.58 147.00,58.28 148.00,59.07 149.00,59.97 150.00,60.93 151.00,44.67 152.00,46.15"/>
    <polyline points="30.00,67.87 31.00,68.51 32.00,67.03 33.00,63.23 34.00,60.77 35.00,62.87 36.00,62.74 37.00,61.11 38.00,57.85 39.00,54.46 40.00,51.76 41.00,51.98 42.00,53.06 43.00,56.31 44.00,59.93 45.00,63.04 46.00,64.86 47.00,66.09 48.00,66.33 49.00,66.86 50.00,67.86 51.00,68.52 52.00,67.54 53.00,64.86 54.00,61.62 55.00,62.49 56.00,63.87 57.00,64.62 58.00,66.09 59.00,66.45 60.00,65.34 61.00,63.42 62.00,61.15 63.00,58.52 64.00,58.77 65.00,61.94 66.00,64.43 67.00,65.60 68.00,65.93 69.00,66.89 70.00,67.32 71.00,68.07 72.00,67.53 73.00,65.46 74.00,62.71 75.00,58.18 76.00,55.50 77.00,56.43 78.00,58.05 79.00,60.38 80.00,61.90"/>
    <polyline points="88.00,66.87 89.00,62.73 90.00,59.68 91.00,62.00 92.00,64.16 93.00,65.15 94.00,65.78 95.00,66.27 96.00,67.01 97.00,67.20 98.00,67.63 99.00,66.26 100.00,63.24 101.00,60.25 102.00,57.15 103.00,55.47 104.00,54.63 105.00,54.09 106.00,53.88 107.00,53.24 108.00,52.51 109.00,52.91 110.00,54.12 111.00,56.71 112.00,60.45 113.00,63.38 114.00,64.73 115.00,65.22 116.00,65.60 117.00,66.12 118.00,67.31 119.00,67.45 120.00,67.03 121.00,65.02 122.00,64.32 123.00,64.65 124.00,64.94 125.00,64.40 126.00,62.42 127.00,59.97 128.00,58.13 129.00,56.04 130.00,53.95 131.00,53.06 132.00,55.18 133.00,58.38 134.00,61.16 135.00,63.77 136.00,64.79 137.00,65.61 138.00,65.71 139.00,66.70 140.00,66.97 141.00,67.46 142.00,66.48 143.00,63.87 144.00,61.37 145.00,58.00 146.00,58.38 147.00,59.08 148.00,59.87 149.00,60.77 150.00,61.73 151.00,52.35 152.00,52.87 153.00,53.30 154.00,56.31 155.00,59.80 156.00,62.41 157.00,64.60 158.00,65.47 159.00,65.77 160.00,66.15 161.00,67.34 162.00,68.10"/>
    <polyline points="30.00,73.56 31.00,72.14 32.00,71.09 33.00,70.26 34.00,69.12 35.00,67.75 36.00,65.02 37.00,62.05 38.00,59.17 39.00,56.07 40.00,55.91 41.00,55.92 42.00,57.05 43.00,58.43 44.00,60.73 45.00,63.84 46.00,65.66 47.00,66.89 48.00,67.13 49.00,69.00 50.00,72.24 51.00,74.43 52.00,74.34 53.00,73.75 54.00,72.12 55.00,71.11 56.00,70.32 57.00,69.59 58.00,68.06 59.00,67.25 60.00,66.14 61.00,64.22 62.00,61.95 63.00,59.32 64.00,59.57 65.00,62.74 66.00,65.23 67.00,66.40 68.00,66.73 69.00,67.69 70.00,68.12 71.00,68.87 72.00,68.53 73.00,72.07 74.00,73.81 75.00,73.96 76.00,73.94 77.00,72.45 78.00,71.66 79.00,70.37 80.00,69.88"/>
    <polyline points="82.00,54.94 83.00,70.67 84.00,69.93 85.00,69.76 86.00,68.77 87.00,66.88 88.00,67.67 89.00,63.53 90.00,60.48 91.00,62.80 92.00,64.96 93.00,65.95 94.00,66.58 95.00,67.07 96.00,67.81 97.00,68.00 98.00,68.43 99.00,67.06 100.00,64.46 101.00,67.43 102.00,70.28 103.00,72.25 104.00,73.57 105.00,73.09 106.00,72.86 107.00,71.36 108.00,70.67 109.00,69.90 110.00,69.12 111.00,68.53 112.00,66.76 113.00,64.18 114.00,65.53 115.00,66.02 116.00,66.40 117.00,66.92 118.00,68.11 119.00,68.25 120.00,67.83 121.00,65.82 122.00,65.12 123.00,65.45 124.00,65.74 125.00,65.27 126.00,68.16 127.00,70.20 128.00,72.42 129.00,73.24 130.00,73.43 131.00,72.12 132.00,71.11 133.00,70.57 134.00,69.63 135.00,68.96 136.00,67.61 137.00,66.41 138.00,66.51 139.00,67.50 140.00,67.77 141.00,68.26 142.00,67.28 143.00,64.67 144.00,62.17 145.00,59.03 146.00,59.74 147.00,60.46 148.00,61.67 149.00,62.92 150.00,66.12 151.00,68.97 152.00,70.84 153.00,73.03 154.00,73.75 155.00,72.71 156.00,72.07 157.00,71.21 158.00,70.40 159.00,69.85 160.00,68.96 161.00,68.14 162.00,68.90 163.00,62.43 164.00,59.94 165.00,57.46 166.00,56.80 167.00,56.86 168.00,56.41"/>
    <polyline points="30.00,74.36 31.00,72.94 32.00,71.89 33.00,71.06 34.00,69.92 35.00,68.55 36.00,65.82 37.00,62.85 38.00,59.97 39.00,61.32 40.00,64.31 41.00,67.20 42.00,70.14 43.00,71.66 44.00,73.49 45.00,75.55 46.00,78.15 47.00,80.90 48.00,81.99 49.00,81.38 50.00,79.73 51.00,77.04 52.00,75.14 53.00,74.55 54.00,72.92 55.00,71.91 56.00,71.12 57.00,70.39 58.00,68.86 59.00,68.05 60.00,66.94 61.00,65.02 62.00,62.75 63.00,64.07 64.00,67.25 65.00,69.45 66.00,71.75 67.00,73.52 68.00,75.07 69.00,77.47 70.00,80.07 71.00,81.39 72.00,82.49 73.00,80.41 74.00,77.72 75.00,74.76 76.00,74.74 77.00,73.25 78.00,72.46 79.00,71.17 80.00,70.68 81.00,71.08 82.00,69.59 83.00,71.47 84.00,70.73 85.00,70.56 86.00,69.57 87.00,67.68 88.00,68.47 89.00,64.33 90.00,61.28 91.00,63.60 92.00,65.76 93.00,68.32 94.00,69.90 95.00,71.42 96.00,73.08 97.00,74.79 98.00,77.10 99.00,78.81 100.00,80.16 101.00,81.15 102.00,80.38 103.00,77.68 104.00,75.30 105.00,73.89 106.00,73.66 107.00,72.16 108.00,71.47 109.00,70.70 110.00,69.92 111.00,69.33 112.00,67.56 113.00,64.98 114.00,66.33 115.00,66.82 116.00,67.20 117.00,67.72 118.00,68.91 119.00,70.80 120.00,72.38 121.00,73.98 122.00,75.98 123.00,77.72 124.00,80.02 125.00,81.17 126.00,80.89 127.00,79.44 128.00,76.77 129.00,74.10 130.00,74.23 131.00,72.92 132.00,71.91 133.00,71.37 134.00,70.43 135.00,69.76 136.00,68.41 137.00,67.21 138.00,67.31 139.00,68.30 140.00,68.57 141.00,69.06 142.00,68.08 143.00,69.98 144.00,71.42 145.00,72.79 146.00,74.37 147.00,76.79 148.00,79.01 149.00,80.00 150.00,81.24 151.00,80.27 152.00,78.73 153.00,75.51 154.00,74.55 155.00,73.51 156.00,72.87 157.00,72.01 158.00,71.20 159.00,70.65 160.00,69.76 161.00,68.94 162.00,69.70 163.00,63.23 164.00,60.82 165.00,63.79 166.00,65.96 167.00,68.28 168.00,70.41 169.00,72.00 170.00,73.30 171.00,75.05 172.00,77.10 173.00,75.51"/>
    <polyline points="30.00,75.16 31.00,73.74 32.00,72.69 33.00,71.86 34.00,70.72 35.00,69.35 36.00,66.62 37.00,67.35 38.00,70.37 39.00,72.85 40.00,74.89 41.00,76.99 42.00,79.27 43.00,82.66 44.00,85.55 45.00,87.23 46.00,86.84 47.00,84.50 48.00,82.79 49.00,82.18 50.00,80.53 51.00,77.84 52.00,75.94 53.00,75.35 54.00,73.72 55.00,72.71 56.00,71.92 57.00,71.19 58.00,69.66 59.00,69.74 60.00,71.96 61.00,74.28 62.00,76.28 63.00,78.79 64.00,82.38 65.00,84.88 66.00,86.91 67.00,87.27 68.00,84.98 69.00,82.59 70.00,80.87 71.00,82.19 72.00,83.29 73.00,81.21 74.00,78.52 75.00,75.56 76.00,75.54 77.00,74.05 78.00,73.26 79.00,71.97 80.00,71.48 81.00,71.88 82.00,70.39 83.00,72.27 84.00,71.53 85.00,71.36 86.00,71.89 87.00,73.38 88.00,75.03 89.00,77.14 90.00,79.91 91.00,82.31 92.00,84.68 93.00,86.58 94.00,85.57 95.00,83.66 96.00,81.69 97.00,79.04 98.00,77.90 99.00,79.61 100.00,80.96 101.00,81.95 102.00,81.18 103.00,78.48 104.00,76.10 105.00,74.69 106.00,74.46 107.00,72.96 108.00,72.27 109.00,72.63 110.00,74.11 111.00,75.96 112.00,78.27 113.00,81.21 114.00,83.79 115.00,85.84 116.00,86.44 117.00,85.29 118.00,82.63 119.00,80.40 120.00,78.28 121.00,76.10 122.00,76.78 123.00,78.52 124.00,80.82 125.00,81.97 126.00,81.69 127.00,80.24 128.00,77.57 129.00,74.90 130.00,75.03 131.00,73.72 132.00,73.42 133.00,74.99 134.00,76.97 135.00,79.45 136.00,82.31 137.00,84.61 138.00,86.50 139.00,86.22 140.00,84.37 141.00,81.50 142.00,79.36 143.00,77.39 144.00,75.58 145.00,73.59 146.00,75.17 147.00,77.59 148.00,79.81 149.00,80.80 150.00,82.04 151.00,81.07 152.00,79.53 153.00,76.31 154.00,75.35 155.00,74.31 156.00,75.88 157.00,77.82 158.00,80.67 159.00,83.03 160.00,85.29 161.00,86.30 162.00,85.19 163.00,83.46 164.00,80.57 165.00,78.34 166.00,76.46 167.00,74.78 168.00,72.93 169.00,72.80 170.00,74.10 171.00,75.85 172.00,77.90 173.00,76.31 174.00,65.97 175.00,68.83 176.00,70.20"/>
    <polyline points="30.00,89.52 31.00,88.03 32.00,85.80 33.00,83.97 34.00,82.60 35.00,81.01 36.00,78.72 37.00,75.56 38.00,72.36 39.00,73.65 40.00,75.69 41.00,77.79 42.00,80.07 43.00,83.46 44.00,86.35 45.00,88.03 46.00,87.64 47.00,85.30 48.00,83.59 49.00,83.55 50.00,87.03 51.00,89.99 52.00,91.37 53.00,91.52 54.00,90.47 55.00,88.25 56.00,86.03 57.00,84.12 58.00,83.07 59.00,81.54 60.00,79.25 61.00,76.74 62.00,77.08 63.00,79.59 64.00,83.18 65.00,85.68 66.00,87.71 67.00,88.07 68.00,85.78 69.00,83.39 70.00,81.67 71.00,82.99 72.00,84.09 73.00,82.93 74.00,86.21 75.00,89.05 76.00,90.67 77.00,91.18 78.00,90.37 79.00,88.37 80.00,86.46 81.00,89.95 82.00,90.18 83.00,89.46 84.00,88.14 85.00,86.18 86.00,84.57 87.00,82.89 88.00,81.93 89.00,80.09 90.00,80.71 91.00,83.11 92.00,85.48 93.00,87.38 94.00,86.37 95.00,84.46 96.00,82.49 97.00,79.84 98.00,78.70 99.00,80.41 100.00,81.76 101.00,82.75 102.00,81.98 103.00,81.75 104.00,84.85 105.00,87.53 106.00,89.25 107.00,90.01 108.00,90.70 109.00,89.34 110.00,87.61 111.00,85.46 112.00,83.85 113.00,82.78 114.00,84.59 115.00,86.64 116.00,87.24 117.00,86.09 118.00,83.43 119.00,81.20 120.00,79.08 121.00,76.90 122.00,77.58 123.00,79.32 124.00,81.62 125.00,82.77 126.00,82.49 127.00,81.04 128.00,80.57 129.00,82.89 130.00,85.05 131.00,87.91 132.00,89.67 133.00,90.79 134.00,89.70 135.00,89.03 136.00,87.28 137.00,85.41 138.00,87.30 139.00,87.02 140.00,85.17 141.00,82.30 142.00,80.16 143.00,78.19 144.00,76.38 145.00,74.39 146.00,75.97 147.00,78.39 148.00,80.61 149.00,81.60 150.00,82.84 151.00,81.87 152.00,80.33 153.00,79.31 154.00,80.74 155.00,83.01 156.00,85.95 157.00,88.75 158.00,89.70 159.00,90.87 160.00,89.66 161.00,88.34 162.00,86.44 163.00,85.02 164.00,83.66 165.00,81.93 166.00,80.81 167.00,78.68 168.00,76.66 169.00,73.60 170.00,74.90 171.00,76.65 172.00,78.70 173.00,77.11 174.00,71.91 175.00,73.47 176.00,75.25 177.00,76.56 178.00,72.62"/>
    <polyline points="70.00,94.34 71.00,83.79 72.00,84.89 73.00,83.73 74.00,87.01 75.00,89.85 76.00,91.47 77.00,91.98 78.00,91.17 79.00,92.93 80.00,94.48 81.00,95.79 82.00,95.87 83.00,94.86 84.00,93.37 85.00,92.00 86.00,90.02 87.00,88.66 88.00,87.94 89.00,86.58 90.00,85.31 91.00,83.91 92.00,86.28 93.00,88.18 94.00,87.17 95.00,85.26 96.00,83.29 97.00,80.64 98.00,79.50 99.00,81.21 100.00,82.56 101.00,83.55 102.00,82.78 103.00,82.55 104.00,85.65 105.00,88.33 106.00,90.05 107.00,90.81 108.00,91.50 109.00,92.25 110.00,94.26 111.00,95.05 112.00,95.67 113.00,95.10 114.00,93.94 115.00,92.88 116.00,91.34 117.00,89.77 118.00,88.14 119.00,87.47 120.00,86.06 121.00,84.55 122.00,83.08 123.00,81.22 124.00,82.42 125.00,83.57 126.00,83.29 127.00,81.84 128.00,81.37 129.00,83.69 130.00,85.85 131.00,88.71 132.00,90.47 133.00,91.59 134.00,90.50 135.00,89.83 136.00,88.08 137.00,86.74 138.00,88.74 139.00,91.11 140.00,93.10 141.00,94.98 142.00,95.51 143.00,95.65 144.00,94.60 145.00,93.46 146.00,91.81 147.00,90.37 148.00,88.97 149.00,88.13 150.00,86.94 151.00,85.68 152.00,83.99 153.00,82.40 154.00,81.54 155.00,83.81 156.00,86.75 157.00,89.55 158.00,90.50 159.00,91.67 160.00,90.46 161.00,89.14 162.00,87.24 163.00,85.82 164.00,84.46 165.00,82.73 166.00,83.95 167.00,85.21 168.00,87.44 169.00,89.33 170.00,91.66 171.00,93.85 172.00,95.09 173.00,95.61 174.00,95.06 175.00,94.57 176.00,92.92 177.00,91.18 178.00,89.98 179.00,88.48 180.00,98.06"/>
    <polyline points="70.00,95.14 71.00,84.59 72.00,85.69 73.00,84.53 74.00,87.81 75.00,90.65 76.00,92.27 77.00,92.78 78.00,91.97 79.00,93.73 80.00,95.28 81.00,96.59 82.00,96.67 83.00,95.70 84.00,97.02 85.00,97.68 86.00,98.96 87.00,99.67 88.00,99.01 89.00,97.46 90.00,95.15 91.00,93.02 92.00,90.49 93.00,88.98 94.00,87.97 95.00,86.40 96.00,85.29 97.00,84.39 98.00,83.78 99.00,82.12 100.00,83.36 101.00,84.35 102.00,83.58 103.00,83.35 104.00,86.45 105.00,89.13 106.00,90.85 107.00,91.61 108.00,92.30 109.00,93.53 110.00,95.06 111.00,95.85 112.00,96.47 113.00,97.43 114.00,98.62 115.00,99.44 116.00,98.86 117.00,97.96 118.00,96.44 119.00,94.45 120.00,91.36 121.00,89.24 122.00,87.63 123.00,86.99 124.00,85.70 125.00,85.05 126.00,84.14 127.00,83.25 128.00,82.17 129.00,84.49 130.00,86.65 131.00,89.51 132.00,91.27 133.00,92.39 134.00,91.30 135.00,90.63 136.00,91.63 137.00,93.29 138.00,93.65 139.00,94.84 140.00,95.42 141.00,96.79 142.00,97.94 143.00,99.02 144.00,99.44 145.00,98.63 146.00,97.47 147.00,95.80 148.00,93.36 149.00,90.89 150.00,88.68 151.00,87.12 152.00,86.11 153.00,85.36 154.00,84.84 155.00,84.61 156.00,87.55 157.00,90.35 158.00,91.30 159.00,92.47 160.00,91.26 161.00,89.94 162.00,88.04 163.00,88.43 164.00,90.86 165.00,92.32 166.00,93.24 167.00,94.45 168.00,95.12 169.00,96.19 170.00,97.21 171.00,98.25 172.00,99.48 173.00,99.00 174.00,98.26 175.00,97.21 176.00,94.26 177.00,91.98 178.00,90.78 179.00,89.28 180.00,98.86"/>
    <polyline points="70.00,95.94 71.00,99.48 72.00,97.16 73.00,94.87 74.00,93.12 75.00,91.46 76.00,93.07 77.00,93.58 78.00,92.77 79.00,94.53 80.00,96.08 81.00,97.39 82.00,97.47 83.00,96.50 84.00,97.82 85.00,98.48 86.00,99.76 87.00,100.47 88.00,99.81 89.00,99.07 90.00,99.75 91.00,100.29 92.00,101.62 93.00,102.77 94.00,103.69 95.00,104.06 96.00,103.27 97.00,102.07 98.00,99.68 99.00,96.74 100.00,94.43 101.00,92.55 102.00,91.37 103.00,90.81 104.00,90.07 105.00,89.93 106.00,91.65 107.00,92.41 108.00,93.10 109.00,94.33 110.00,95.86 111.00,96.65 112.00,97.27 113.00,98.23 114.00,99.42 115.00,100.24 116.00,99.66 117.00,99.75 118.00,100.41 119.00,101.38 120.00,102.56 121.00,103.80 122.00,103.82 123.00,103.17 124.00,101.25 125.00,99.06 126.00,96.45 127.00,94.48 128.00,92.45 129.00,91.16 130.00,90.53 131.00,90.31 132.00,92.07 133.00,93.19 134.00,92.10 135.00,91.43 136.00,92.43 137.00,94.09 138.00,94.45 139.00,95.64 140.00,96.22 141.00,97.59 142.00,98.74 143.00,99.82 144.00,100.24 145.00,100.46 146.00,101.70 147.00,102.99 148.00,103.92 149.00,103.65 150.00,103.29 151.00,101.29 152.00,98.68 153.00,96.60 154.00,93.93 155.00,92.00 156.00,91.33 157.00,91.15 158.00,92.10 159.00,93.27 160.00,92.06 161.00,90.74 162.00,88.84 163.00,89.23 164.00,91.66 165.00,93.12 166.00,94.04 167.00,95.25 168.00,96.94 169.00,98.45 170.00,99.22 171.00,99.97 172.00,100.70 173.00,101.66 174.00,103.17 175.00,103.64 176.00,104.02 177.00,102.99 178.00,100.86 179.00,98.36 180.00,105.31"/>
    <polyline points="214.00,95.36 215.00,97.36 216.00,98.71"/>
    <polyline points="72.00,100.70 73.00,106.50 74.00,107.80 75.00,108.56 76.00,109.01 77.00,108.74 78.00,108.13 79.00,106.03 80.00,103.98 81.00,101.51 82.00,99.65 83.00,97.61 84.00,98.62 85.00,99.28 86.00,100.56 87.00,101.27 88.00,100.61 89.00,99.87 90.00,100.55 91.00,101.09 92.00,102.42 93.00,103.57 94.00,104.49 95.00,104.86 96.00,104.07 97.00,102.87 98.00,102.07 99.00,103.52 100.00,104.31 101.00,105.01 102.00,105.80 103.00,106.70 104.00,108.16 105.00,109.08 106.00,109.27 107.00,108.64 108.00,107.99 109.00,105.98 110.00,103.77 111.00,100.91 112.00,99.49 113.00,99.03 114.00,100.22 115.00,101.04 116.00,100.46 117.00,100.55 118.00,101.21 119.00,102.18 120.00,103.36 121.00,104.60 122.00,104.62 123.00,103.97 124.00,102.05 125.00,99.86 126.00,98.72 127.00,100.65 128.00,102.38 129.00,103.60 130.00,103.98 131.00,104.99 132.00,105.99 133.00,106.81 134.00,108.25 135.00,109.13 136.00,109.26 137.00,108.42 138.00,107.31 139.00,105.89 140.00,103.70 141.00,100.65 142.00,99.54 143.00,100.62 144.00,101.04 145.00,101.26 146.00,102.50 147.00,103.79 148.00,104.72 149.00,104.45 150.00,104.09 151.00,102.09 152.00,99.48 153.00,97.40 154.00,94.73 155.00,96.61 156.00,98.92 157.00,100.79 158.00,102.25 159.00,103.61 160.00,104.43 161.00,105.00 162.00,106.04 163.00,106.95 164.00,108.34 165.00,108.79 166.00,109.38 167.00,108.93 168.00,107.33 169.00,105.88 170.00,103.26 171.00,100.77 172.00,101.50 173.00,102.46 174.00,103.97 175.00,104.44 176.00,104.82 177.00,103.79 178.00,101.82"/>
    <polyline points="213.00,104.26 214.00,105.10 215.00,106.19 216.00,107.23 217.00,108.42"/>
    <polyline points="74.00,110.74 75.00,109.36 76.00,109.81 77.00,109.54 78.00,108.93 79.00,106.83 80.00,104.78 81.00,106.73 82.00,107.97 83.00,109.21 84.00,110.57 85.00,112.49 86.00,113.67 87.00,114.65 88.00,113.94 89.00,111.58 90.00,108.14 91.00,105.40 92.00,103.22 93.00,104.37 94.00,105.29 95.00,105.66 96.00,104.87 97.00,103.67 98.00,102.87 99.00,104.32 100.00,105.11 101.00,105.81 102.00,106.60 103.00,107.74 104.00,108.96 105.00,109.88 106.00,111.66 107.00,113.10 108.00,114.34 109.00,114.03 110.00,113.08 111.00,109.77 112.00,106.40 113.00,103.61 114.00,102.40 115.00,101.84 116.00,101.26 117.00,101.35 118.00,102.01 119.00,102.98 120.00,104.16 121.00,105.40 122.00,105.42 123.00,104.77 124.00,106.36 125.00,108.11 126.00,109.27 127.00,110.56 128.00,112.59 129.00,113.98 130.00,114.54 131.00,113.46 132.00,111.39 133.00,108.26 134.00,109.05 135.00,109.93 136.00,110.06 137.00,109.22 138.00,108.11 139.00,106.69 140.00,104.50 141.00,101.45 142.00,100.34 143.00,101.42 144.00,103.03 145.00,105.36 146.00,107.57 147.00,108.79 148.00,109.77 149.00,111.24 150.00,113.55 151.00,114.54 152.00,114.41 153.00,112.43 154.00,109.47 155.00,106.74 156.00,103.90 157.00,101.86 158.00,103.05 159.00,104.41 160.00,105.23 161.00,105.80 162.00,106.84 163.00,107.75 164.00,109.14 165.00,109.59 166.00,110.18 167.00,109.73 168.00,108.46 169.00,109.39 170.00,110.93 171.00,112.24 172.00,113.93 173.00,114.93 174.00,113.48 175.00,110.84 176.00,105.62"/>
    <polyline points="211.00,112.17 212.00,108.60 213.00,105.06 214.00,105.90 215.00,106.99 216.00,108.03 217.00,109.22 218.00,96.51 219.00,95.11"/>
    <polyline points="77.00,118.64 78.00,109.73 79.00,107.63 80.00,110.04 81.00,112.87 82.00,114.85 83.00,115.74 84.00,115.85 85.00,115.82 86.00,116.70 87.00,116.64 88.00,116.85 89.00,115.21 90.00,113.55 91.00,109.58 92.00,106.68 93.00,105.17 94.00,106.09 95.00,106.46 96.00,105.67 97.00,104.47 98.00,103.67 99.00,105.12 100.00,105.91 101.00,106.62 102.00,110.28 103.00,112.68 104.00,115.25 105.00,115.96 106.00,115.69 107.00,116.00 108.00,116.57 109.00,116.87 110.00,116.49 111.00,115.03 112.00,112.50 113.00,109.80 114.00,107.17 115.00,104.73 116.00,104.06 117.00,104.29 118.00,103.97 119.00,103.78 120.00,104.96 121.00,106.20 122.00,106.22 123.00,107.44 124.00,110.74 125.00,113.45 126.00,114.95 127.00,115.63 128.00,115.76 129.00,115.82 130.00,116.62 131.00,116.72 132.00,116.80 133.00,115.01 134.00,112.92 135.00,110.73 136.00,110.86 137.00,110.02 138.00,108.91 139.00,107.49 140.00,105.30 141.00,103.26 142.00,102.95 143.00,103.37 144.00,104.56 145.00,107.56 146.00,110.95 147.00,113.52 148.00,115.05 149.00,115.70 150.00,116.14 151.00,116.27 152.00,116.76 153.00,117.01 154.00,116.39 155.00,115.28 156.00,112.08 157.00,108.89 158.00,106.29 159.00,105.21 160.00,106.03 161.00,106.60 162.00,107.64 163.00,108.55 164.00,109.94 165.00,110.39 166.00,110.98 167.00,110.53 168.00,111.11 169.00,113.61 170.00,115.26 171.00,115.92 172.00,115.90 173.00,117.82"/>
    <polyline points="210.00,116.29 211.00,116.76 212.00,117.66 213.00,117.16 214.00,115.45 215.00,112.73 216.00,108.83 217.00,110.02 218.00,104.30 219.00,104.12 220.00,103.74"/>
    <polyline points="82.00,115.65 83.00,122.56 84.00,124.41 85.00,126.46 86.00,125.47 87.00,123.92 88.00,122.06 89.00,119.69 90.00,117.56 91.00,116.25 92.00,114.15 93.00,112.10 94.00,109.60 95.00,107.26 96.00,106.47 97.00,105.27 98.00,104.59 99.00,106.51 100.00,108.75 101.00,110.88 102.00,112.80 103.00,114.29 104.00,116.40 105.00,118.98 106.00,121.62 107.00,123.95 108.00,126.01 109.00,126.10 110.00,125.16 111.00,122.84 112.00,120.52 113.00,118.36 114.00,116.63 115.00,115.19 116.00,113.22 117.00,110.12 118.00,107.88 119.00,104.96 120.00,105.76 121.00,107.00 122.00,107.02 123.00,108.24 124.00,111.54 125.00,114.25 126.00,115.75 127.00,116.43 128.00,117.87 129.00,120.46 130.00,123.19 131.00,125.33 132.00,126.22 133.00,125.18 134.00,123.13 135.00,121.11 136.00,119.13 137.00,117.29 138.00,115.86 139.00,114.04 140.00,111.38 141.00,108.49 142.00,106.44 143.00,104.39 144.00,105.36 145.00,108.36 146.00,111.75 147.00,114.32 148.00,115.85 149.00,116.50 150.00,116.94 151.00,117.14 152.00,119.60 153.00,122.31 154.00,124.72 155.00,126.15 156.00,125.82 157.00,124.16 158.00,122.03 159.00,119.67 160.00,117.77 161.00,116.31 162.00,114.53 163.00,112.45 164.00,110.74 165.00,111.19 166.00,111.78 167.00,111.33 168.00,111.91"/>
    <polyline points="209.00,106.16 210.00,117.09 211.00,117.56 212.00,118.46 213.00,117.96 214.00,116.45 215.00,119.40 216.00,122.40 217.00,124.51 218.00,126.47 219.00,125.98 220.00,125.12 221.00,122.14"/>
    <polyline points="88.00,122.86 89.00,120.49 90.00,120.16 91.00,117.64 92.00,116.13 93.00,114.68 94.00,114.11 95.00,113.90 96.00,113.59 97.00,114.11 98.00,113.87 99.00,113.72 100.00,113.41 101.00,113.57 102.00,114.43 103.00,116.35 104.00,118.59 105.00,120.95 106.00,123.54 107.00,125.31 108.00,126.81 109.00,126.90 110.00,126.17 111.00,125.97 112.00,125.88 113.00,126.55 114.00,126.75 115.00,126.34 116.00,126.02 117.00,124.84 118.00,122.02 119.00,119.61 120.00,117.50 121.00,115.90 122.00,114.55 123.00,114.08 124.00,113.96 125.00,115.05 126.00,116.55 127.00,117.23 128.00,118.67 129.00,121.26 130.00,123.99 131.00,126.13 132.00,127.02 133.00,125.98 134.00,123.93 135.00,123.22 136.00,125.13 137.00,126.05 138.00,125.98 139.00,126.14 140.00,126.00 141.00,126.31 142.00,126.47 143.00,126.48 144.00,126.51 145.00,126.01 146.00,124.00 147.00,122.18 148.00,119.46 149.00,117.67 150.00,117.74 151.00,117.94 152.00,120.40 153.00,123.11 154.00,125.52 155.00,126.95 156.00,126.62 157.00,124.96 158.00,122.83 159.00,120.47 160.00,118.57 161.00,117.11 162.00,115.33"/>
    <polyline points="208.00,112.88 209.00,113.50 210.00,117.89 211.00,118.36 212.00,119.26 213.00,119.42 214.00,122.36 215.00,124.70 216.00,125.86 217.00,126.72 218.00,127.27 219.00,126.78 220.00,126.31 221.00,126.77 222.00,127.01"/>
    <polyline points="98.00,132.63 99.00,133.52 100.00,118.01 101.00,119.10 102.00,120.90 103.00,123.68 104.00,125.35 105.00,127.65 106.00,129.05 107.00,130.28 108.00,130.44 109.00,130.88 110.00,130.96 111.00,131.59 112.00,132.55 113.00,132.43 114.00,132.68 115.00,131.41 116.00,129.17 117.00,126.89 118.00,124.73 119.00,122.37 120.00,120.99 121.00,120.32 122.00,119.71 123.00,119.59 124.00,118.80 125.00,118.49 126.00,117.92 127.00,118.03 128.00,119.47 129.00,122.06 130.00,124.79 131.00,126.93 132.00,127.82 133.00,126.98 134.00,129.08 135.00,130.01 136.00,130.10 137.00,130.49 138.00,131.16 139.00,131.39 140.00,132.41 141.00,132.84 142.00,132.66 143.00,131.83 144.00,130.10 145.00,127.27 146.00,125.03 147.00,122.98 148.00,121.57 149.00,120.19 150.00,119.49 151.00,134.25 152.00,133.07"/>
    <polyline points="206.00,116.96 207.00,117.58 208.00,119.87 209.00,121.86 210.00,124.75 211.00,127.83 212.00,129.12 213.00,130.17 214.00,130.50 215.00,131.20 216.00,131.18 217.00,132.21 218.00,132.59 219.00,133.25 220.00,132.93 221.00,131.69 222.00,128.94 223.00,126.71 224.00,123.76"/>
    <polyline points="117.00,131.55 118.00,136.04 119.00,139.64 120.00,140.12 121.00,139.23 122.00,137.85 123.00,136.81 124.00,135.55 125.00,134.48 126.00,130.77 127.00,126.76 128.00,122.86 129.00,122.86 130.00,125.59 131.00,127.73 132.00,128.62 133.00,127.78"/>
    <polyline points="205.00,120.60 206.00,121.36 207.00,123.17 208.00,124.12 209.00,124.88 210.00,125.69 211.00,128.63 212.00,130.69 213.00,134.39 214.00,137.19 215.00,139.20 216.00,138.66 217.00,137.59 218.00,136.29 219.00,135.37 220.00,134.57 221.00,133.68 222.00,131.58 223.00,127.86 224.00,124.56 225.00,122.03"/>
    <polyline points="204.00,131.37 205.00,132.84 206.00,134.58 207.00,137.30 208.00,140.39 209.00,142.75 210.00,144.70 211.00,145.95 212.00,145.51 213.00,143.67 214.00,141.86 215.00,140.25 216.00,139.46 217.00,138.39 218.00,137.09 219.00,136.17 220.00,135.37 221.00,134.48 222.00,132.38 223.00,128.66 224.00,125.36 225.00,125.98 226.00,127.84"/>
    <polyline points="203.00,133.51 204.00,132.53 205.00,133.64 206.00,135.38 207.00,138.10 208.00,141.19 209.00,143.55 210.00,145.50 211.00,146.75 212.00,146.31 213.00,144.76 214.00,146.52 215.00,147.49 216.00,146.93 217.00,146.39 218.00,146.19 219.00,146.31 220.00,146.04 221.00,144.34 222.00,142.58 223.00,138.80 224.00,135.59 225.00,133.68 226.00,132.94 227.00,133.14"/>
    <polyline points="201.00,141.40 202.00,143.13 203.00,145.18 204.00,146.60 205.00,147.66 206.00,149.18 207.00,150.49 208.00,152.21 209.00,154.17 210.00,155.54 211.00,156.16 212.00,156.29 213.00,155.05 214.00,153.48 215.00,151.04 216.00,148.72 217.00,147.19 218.00,146.99 219.00,147.11 220.00,146.84 221.00,145.14 222.00,143.38 223.00,139.60 224.00,136.39 225.00,134.48 226.00,133.74 227.00,133.94 228.00,135.41 229.00,137.58"/>
    <polyline points="200.00,143.88 201.00,142.20 202.00,143.93 203.00,145.98 204.00,147.40 205.00,148.46 206.00,149.98 207.00,151.29 208.00,153.01 209.00,154.97 210.00,156.34 211.00,156.96 212.00,157.09 213.00,158.27 214.00,159.86 215.00,159.82 216.00,158.80 217.00,157.37 218.00,156.26 219.00,155.16 220.00,153.87 221.00,152.77 222.00,151.03 223.00,149.00 224.00,145.34 225.00,142.55 226.00,140.69 227.00,139.76 228.00,140.79 229.00,141.52 230.00,143.33"/>
  </g>
</svg>